# xmcd CD database file
#
# Track frame offsets:
#	150
#	15922
#	29852
#	46145
#	60492
#	74532
#	90255
#	104700
#	116795
#	131937
#
# Disc length: 1961 seconds
#
# Revision: 3
# Processed by: cddbd v1.5.2PL0 Copyright (c) Steve Scherf et al.
# Submitted via: CDex 1.60beta1
#
DISCID=8b07a70a
DTITLE=Rick Trevino - Learning As You Go
DYEAR=1996
DGENRE=Country
TTITLE0=Learning As You Go
TTITLE1=Running Out Of Reasons To Run
TTITLE2=I Only Get This Way With You
TTITLE3=See Rock City
TTITLE4=Oh Jenny
TTITLE5=Serious Love
TTITLE6=I Wish He Wouldn't Treat Her That Way
TTITLE7=Anytime
TTITLE8=Mary's Just A Plain Jane
TTITLE9=I'm Here For You
EXTD=YEAR: 1996
EXTT0=
EXTT1=
EXTT2=
EXTT3=
EXTT4=
EXTT5=
EXTT6=
EXTT7=
EXTT8=
EXTT9=
PLAYORDER=
